<svg width="23" height="23" viewBox="0 0 23 23" fill="none" xmlns="http://www.w3.org/2000/svg">
<g id="&#229;&#143;&#150;&#230;&#182;&#136;&#230;&#138;&#165;&#229;&#183;&#165; 1">
<path id="Vector" d="M13.2293 6.70272H12.3999L12.3855 6.31747C12.2662 4.53497 11.3074 3.01985 9.913 2.25797V4.88716H9.08356V1.89285L8.77306 1.8066C8.46732 1.73865 8.15474 1.70633 7.84156 1.71028C7.42469 1.71028 7.01213 1.75628 6.59669 1.89285V4.88716H5.76725V2.25653L5.474 2.42903C4.14575 3.29872 3.28038 4.88141 3.28038 6.70416H2.45094V7.61266H13.2322V6.70128H13.2293V6.70272ZM7.83869 13.0565C10.1171 13.0565 11.9844 11.0123 11.9844 8.51828H3.69294L3.703 8.83885C3.85825 11.1892 5.658 13.055 7.83869 13.055V13.0565ZM17.25 10.0622C15.725 10.0622 14.2625 10.668 13.1841 11.7463C12.1058 12.8246 11.5 14.2872 11.5 15.8122C11.5 17.3372 12.1058 18.7997 13.1841 19.878C14.2625 20.9564 15.725 21.5622 17.25 21.5622C18.775 21.5622 20.2375 20.9564 21.3159 19.878C22.3942 18.7997 23 17.3372 23 15.8122C23 14.2872 22.3942 12.8246 21.3159 11.7463C20.2375 10.668 18.775 10.0622 17.25 10.0622ZM19.7469 19.3283C18.9163 19.9182 17.9036 20.195 16.8884 20.1096C15.8731 20.0241 14.9209 19.5821 14.2005 18.8616C13.4801 18.1412 13.038 17.189 12.9526 16.1738C12.8672 15.1586 13.144 14.1459 13.7339 13.3152L19.7469 19.3283ZM20.217 18.9416C20.2731 18.8884 20.3263 18.8352 20.3794 18.7792L20.217 18.9416ZM20.7633 18.312L14.7502 12.2975C15.5809 11.7058 16.5944 11.4276 17.6107 11.5124C18.627 11.5972 19.5804 12.0394 20.3016 12.7606C21.0227 13.4817 21.465 14.4351 21.5498 15.4515C21.6345 16.4678 21.3564 17.4813 20.7647 18.312H20.7633ZM10.0625 15.8122C10.0625 15.3579 10.1056 14.9108 10.1861 14.4782C9.24744 14.287 8.46544 14.1907 7.83869 14.1907C6.44287 14.1907 4.27081 14.6693 1.33256 15.621C0.544813 15.8754 0 16.725 0 17.691V21.3092H12.6169C11.8157 20.6349 11.1719 19.7934 10.7306 18.8437C10.2893 17.8941 10.0612 16.8593 10.0625 15.8122Z" fill="#CADCFF"/>
</g>
</svg>
